<svg xmlns="http://www.w3.org/2000/svg" width="60.125" height="59.672" viewBox="0 0 60.125 59.672">
  <g id="AKCIJA_tag" data-name="AKCIJA tag" transform="translate(0.015 0.006)">
    <path id="burst" d="M60.11,29.8a2.08,2.08,0,0,0-.86-1.68V28.1l-7.26-4.2,4.18-7.24h-.01a2.074,2.074,0,0,0-1.05-2.74,2.26,2.26,0,0,0-.63-.17v-.02H46.09V5.36h-.02a2.069,2.069,0,0,0-2.28-1.84,1.977,1.977,0,0,0-.62.17V3.67L35.76,7.93,31.68.84h-.01A2.073,2.073,0,0,0,28.78.39a2.008,2.008,0,0,0-.46.46H28.3l-4.16,7.2L16.98,3.91v.02a2.067,2.067,0,0,0-2.74,1.06,2.288,2.288,0,0,0-.17.62h-.02v8.32H5.77v.02a2.069,2.069,0,0,0-1.84,2.28,1.977,1.977,0,0,0,.17.62H4.08l4.09,7.1L.84,28.17h0a2.092,2.092,0,0,0-.46,2.91,2.008,2.008,0,0,0,.46.46v.02l7.26,4.2L3.92,43.01h.02a2.074,2.074,0,0,0,1.05,2.74,2.26,2.26,0,0,0,.63.17v.02h8.39v8.37h.02a2.069,2.069,0,0,0,2.28,1.84,1.977,1.977,0,0,0,.62-.17V56l7.4-4.27,4.09,7.09h.01a2.073,2.073,0,0,0,2.89.45,2.008,2.008,0,0,0,.46-.46h.02l4.16-7.2,7.17,4.14h0a2.08,2.08,0,0,0,2.73-1.07,2.288,2.288,0,0,0,.17-.62h.02V45.74h8.27v-.02a2.069,2.069,0,0,0,1.84-2.28,1.977,1.977,0,0,0-.17-.62h.02l-4.09-7.09,7.32-4.23h0a2.146,2.146,0,0,0,.85-1.69h0Z" fill="#2d6255"/>
    <g id="NOVO">
      <text id="AKCIJA" transform="translate(13.72 44.84) rotate(-30)" fill="#fff" font-size="13" font-family="SegoeUI-Bold, Segoe UI" font-weight="700"><tspan x="0" y="0">AKCIJA</tspan></text>
    </g>
  </g>
</svg>
