<svg xmlns="http://www.w3.org/2000/svg" width="58.135" height="50.735" viewBox="0 0 58.135 50.735">
  <g id="Group_48" data-name="Group 48" transform="translate(-268.933 -591.133)">
    <g id="man" transform="translate(268.933 591.133)">
      <path id="Path_43" data-name="Path 43" d="M20.734,19.654,17.323,29.738a2.22,2.22,0,0,1-4.205-1.423L17.158,16.37a3.488,3.488,0,0,1,3.3-2.37H33.225a3.488,3.488,0,0,1,3.286,2.318l4.262,11.969a2.22,2.22,0,0,1-4.182,1.489l-3.424-9.615v29.8a2.131,2.131,0,0,1-4.261,0v-14.9H25v14.9a2.131,2.131,0,0,1-4.261,0V19.654Z" transform="translate(-13 -1.316)" fill="#2d6255" fill-rule="evenodd"/>
      <path id="Path_44" data-name="Path 44" d="M30.147,9.076A5.074,5.074,0,1,1,25.074,4a5.075,5.075,0,0,1,5.074,5.076Z" transform="translate(-11.121 -4)" fill="#2d6255"/>
    </g>
    <g id="woman" transform="translate(299.165 592.4)">
      <path id="Path_45" data-name="Path 45" d="M17.283,27.944l3.328-8.376v7.116h0L16.233,37.628a1.268,1.268,0,0,0,1.178,1.739h3.324v9.2a2.132,2.132,0,1,0,4.261,0v-9.2h3.91v9.2a2.132,2.132,0,1,0,4.261,0v-9.2h3.328a1.268,1.268,0,0,0,1.178-1.739L33.294,26.684V19.916l3.349,7.774a2.22,2.22,0,1,0,4.077-1.756l-4.232-9.826A3.488,3.488,0,0,0,33.285,14H20.413a3.488,3.488,0,0,0-3.242,2.2L13.157,26.3a2.22,2.22,0,0,0,4.126,1.639Z" transform="translate(-13 -1.316)" fill="#2d6255" fill-rule="evenodd"/>
      <path id="Path_46" data-name="Path 46" d="M30.147,9.076A5.074,5.074,0,1,1,25.074,4a5.075,5.075,0,0,1,5.074,5.076Z" transform="translate(-11.121 -4)" fill="#2d6255"/>
    </g>
  </g>
</svg>
