<svg xmlns="http://www.w3.org/2000/svg" width="60" height="50.735" viewBox="0 0 60 50.735">
  <g id="children" transform="translate(-7 -10)">
    <path id="Path_34" data-name="Path 34" d="M21.347,25.577a6.165,6.165,0,1,0-6.277-6.164A6.221,6.221,0,0,0,21.347,25.577Zm-4.483,2.642a2.7,2.7,0,0,0-2.238,1.176L7.452,39.961A2.613,2.613,0,0,0,8.2,43.624a2.721,2.721,0,0,0,3.73-.733l2.245-3.307v15.93a2.691,2.691,0,0,0,5.38,0V46.71h3.587v8.805a2.691,2.691,0,0,0,5.38,0V39.585l2.245,3.307a2.721,2.721,0,0,0,3.73.733,2.612,2.612,0,0,0,.746-3.663L28.069,29.395a2.7,2.7,0,0,0-2.238-1.176Z" transform="translate(0 2.578)" fill="#2d6255" fill-rule="evenodd"/>
    <path id="Path_35" data-name="Path 35" d="M46.521,10.716a.8.8,0,0,0-1.14-.645l-6.034,2.577L33.314,10.07a.8.8,0,0,0-1.14.645v3.863a.8.8,0,0,0,1.14.645l6.034-2.577,6.034,2.577a.8.8,0,0,0,1.14-.645ZM39.347,28.088a6.177,6.177,0,1,0-6.277-6.176A6.227,6.227,0,0,0,39.347,28.088Zm-4.483,2.647a2.7,2.7,0,0,0-2.238,1.179L25.452,42.5a2.621,2.621,0,0,0,.746,3.671,2.717,2.717,0,0,0,3.73-.734l2.245-3.314v3.169l-3.587,7.059h3.587v5.735a2.69,2.69,0,0,0,5.38,0V52.353h3.587v5.735a2.69,2.69,0,0,0,5.38,0V52.353h3.587l-3.587-7.059V42.125l2.245,3.314a2.717,2.717,0,0,0,3.73.734,2.621,2.621,0,0,0,.746-3.671L46.069,31.914a2.7,2.7,0,0,0-2.238-1.179Z" transform="translate(13.305 0)" fill="#2d6255" fill-rule="evenodd"/>
  </g>
</svg>
