<svg xmlns="http://www.w3.org/2000/svg" width="47.453" height="47.455" viewBox="0 0 47.453 47.455">
  <g id="fork-and-knife" transform="translate(-2.001 -1.999)">
    <path id="Path_54" data-name="Path 54" d="M49.313,9.154c.556-1.035-.7-.721-.7-.721s-8.4,8.068-9.573,7.079S47.264,6.79,46.152,5.345C45.124,4,36.867,13.614,35.875,12.44s7.07-9.588,7.07-9.588.306-1.267-.721-.712C29.564,8.948,27.951,15.295,27.951,15.295a2.22,2.22,0,0,0,.51,2.192c.093.083-23.1,23.142-26.2,26.255C.749,45.25,6.292,50.7,7.793,49.193,10.9,46.08,33.912,22.854,33.995,22.94a2.2,2.2,0,0,0,2.188.516s6.337-1.617,13.131-14.3" transform="translate(0 0)" fill="#2d6255" fill-rule="evenodd"/>
    <path id="Path_55" data-name="Path 55" d="M32.028,39.117C38.2,45.3,48.6,55.726,48.6,55.726s4.541-1.486,5.181-5.322L37.275,33.861c-1.539,1.539-3.326,3.328-5.247,5.256" transform="translate(-6.278 -6.662)" fill="#2d6255" fill-rule="evenodd"/>
    <path id="Path_56" data-name="Path 56" d="M18.143,27.2c2.451-2.449,4.738-4.74,6.633-6.644L6.832,2.577s-.324-.34-1.038.377c-1.418,1.413-4.162,10.419,7.47,22.068A6.677,6.677,0,0,0,18.143,27.2" transform="translate(-0.514 -0.104)" fill="#2d6255" fill-rule="evenodd"/>
  </g>
</svg>
