<svg xmlns="http://www.w3.org/2000/svg" width="68.288" height="65.036" viewBox="0 0 68.288 65.036">
  <g id="group-discussion" transform="translate(-3 -3)">
    <path id="Path_106" data-name="Path 106" d="M24.259,31.129A8.129,8.129,0,1,1,16.129,23,8.127,8.127,0,0,1,24.259,31.129Z" transform="translate(3.129 12.518)" fill="#2d6255"/>
    <path id="Path_107" data-name="Path 107" d="M3,43.671C3,37.9,13.833,35,19.259,35s16.259,2.9,16.259,8.671v4.336H3Z" transform="translate(0 20.029)" fill="#2d6255"/>
    <path id="Path_108" data-name="Path 108" d="M46.259,31.129A8.129,8.129,0,1,1,38.129,23,8.127,8.127,0,0,1,46.259,31.129Z" transform="translate(16.899 12.518)" fill="#2d6255"/>
    <path id="Path_109" data-name="Path 109" d="M33.007,29.5A6.5,6.5,0,1,1,26.5,23,6.5,6.5,0,0,1,33.007,29.5Z" transform="translate(10.64 12.518)" fill="#2d6255"/>
    <path id="Path_110" data-name="Path 110" d="M25,43.671C25,37.9,35.833,35,41.259,35s16.259,2.9,16.259,8.671v4.336H25Z" transform="translate(13.77 20.029)" fill="#2d6255"/>
    <g id="Group_62" data-name="Group 62" transform="translate(12.755 3)">
      <path id="Path_111" data-name="Path 111" d="M34.7,34.927q-.651.239-1.282.508A17.262,17.262,0,0,0,28.1,38.818a10.548,10.548,0,0,0-1.122,1.3,10.536,10.536,0,0,0-1.122-1.3,17.26,17.26,0,0,0-5.321-3.383q-.629-.269-1.282-.508A18.582,18.582,0,0,1,26.974,33,18.582,18.582,0,0,1,34.7,34.927Z" transform="translate(-2.585 15.777)" fill="#2d6255" fill-rule="evenodd"/>
      <path id="Path_112" data-name="Path 112" d="M25.411,27.388c8.531,0,15.446-5.46,15.446-12.194S33.942,3,25.411,3,9.965,8.46,9.965,15.194a9.975,9.975,0,0,0,1.148,4.622c-1.635,2-2.035,5.038-2.113,6.944a.838.838,0,0,0,1.366.633,20.645,20.645,0,0,1,5.19-2.81A18.036,18.036,0,0,0,25.411,27.388Z" transform="translate(-9 -3)" fill="#2d6255" fill-rule="evenodd"/>
      <path id="Path_113" data-name="Path 113" d="M26.367,24.04c4.2-2.832,6.888-7.145,6.888-11.976a12.944,12.944,0,0,0-.56-3.768,15.127,15.127,0,0,1,3-.3c6.735,0,12.194,4.368,12.194,9.755a8.161,8.161,0,0,1-1.243,4.3,9.628,9.628,0,0,1,1.106,4.073.84.84,0,0,1-1.358.658,15.4,15.4,0,0,0-2.842-1.567,14.081,14.081,0,0,1-7.858,2.295,13.571,13.571,0,0,1-9.327-3.47Z" transform="translate(1.87 0.129)" fill="#2d6255" fill-rule="evenodd"/>
    </g>
  </g>
</svg>
