<svg xmlns="http://www.w3.org/2000/svg" width="54.075" height="50.47" viewBox="0 0 54.075 50.47">
  <g id="home" transform="translate(-16 -32)">
    <path id="Path_52" data-name="Path 52" d="M86.167,99.311a.9.9,0,0,0-1.246,0l-20.74,19.813a.9.9,0,0,0-.278.652l0,18.595a3.6,3.6,0,0,0,3.6,3.6H78.331a1.8,1.8,0,0,0,1.8-1.8V124.852a.9.9,0,0,1,.9-.9h9.012a.9.9,0,0,1,.9.9v15.321a1.8,1.8,0,0,0,1.8,1.8h10.822a3.6,3.6,0,0,0,3.6-3.6V119.776a.9.9,0,0,0-.278-.652Z" transform="translate(-42.504 -59.506)" fill="#2d6255"/>
    <path id="Path_53" data-name="Path 53" d="M69.5,55.9l-8.427-8.062V35.6a1.8,1.8,0,0,0-1.8-1.8H53.864a1.8,1.8,0,0,0-1.8,1.8v3.6l-6.525-6.239a3.694,3.694,0,0,0-4.994,0L16.581,55.9a1.837,1.837,0,0,0-.151,2.52,1.8,1.8,0,0,0,2.611.119L42.417,36.2a.9.9,0,0,1,1.246,0L67.042,58.537a1.8,1.8,0,0,0,2.545-.05A1.847,1.847,0,0,0,69.5,55.9Z" transform="translate(0 0)" fill="#2d6255"/>
  </g>
</svg>
