<svg xmlns="http://www.w3.org/2000/svg" width="47.453" height="51.407" viewBox="0 0 47.453 51.407">
  <g id="medicines" transform="translate(-6.371 -5)">
    <path id="Path_47" data-name="Path 47" d="M37.781,26.769,29.04,31.816l4.71,8.159,8.742-5.047a4.71,4.71,0,0,0-4.71-8.159ZM35.1,42.306l8.742-5.047a7.4,7.4,0,0,0-7.4-12.821l-8.742,5.047a.673.673,0,0,0-.919-.246l-9.907,5.72a8.075,8.075,0,1,0,8.075,13.986l9.907-5.72A.673.673,0,0,0,35.1,42.306ZM22.449,34.583,17.41,37.462a5.065,5.065,0,0,0-2.369,5.67,1.108,1.108,0,0,0,1.675.575.807.807,0,0,0,.317-.95,3.05,3.05,0,0,1,1.379-3.543l5.039-2.879a1.009,1.009,0,1,0-1-1.753Z" transform="translate(2.233 6.379)" fill="#2d6255" fill-rule="evenodd"/>
    <path id="Path_48" data-name="Path 48" d="M26.865,30.741l-4.105,2.37A2.356,2.356,0,0,1,24.118,37.5l-5.039,2.879a1.7,1.7,0,0,0-.761,1.977,2.15,2.15,0,0,1-.935,2.516,2.621,2.621,0,0,1-2.085.235,2.41,2.41,0,0,1-.43-.184q.1.2.209.39A6.729,6.729,0,0,0,24.27,47.78L33.594,42.4Zm2.175,1.075,8.742-5.047a4.71,4.71,0,1,1,4.71,8.159L33.75,39.975ZM35.1,42.306l8.742-5.047a7.4,7.4,0,0,0-7.4-12.821l-8.742,5.047a.673.673,0,0,0-.919-.246l-9.907,5.72a8.075,8.075,0,1,0,8.075,13.986l9.907-5.72a.673.673,0,0,0,.246-.919ZM17.41,37.462l5.039-2.879a1.009,1.009,0,1,1,1,1.753l-5.039,2.879a3.05,3.05,0,0,0-1.379,3.543.807.807,0,0,1-.317.95,1.108,1.108,0,0,1-1.675-.575A5.065,5.065,0,0,1,17.41,37.462Z" transform="translate(2.233 6.379)" fill="#2d6255" fill-rule="evenodd"/>
    <path id="Path_49" data-name="Path 49" d="M43.082,22.111a.639.639,0,0,0,.974-.062A10.769,10.769,0,0,0,29.028,7.021a.639.639,0,0,0-.062.974Z" transform="translate(7.747)" fill="#2d6255"/>
    <path id="Path_50" data-name="Path 50" d="M28.625,8.336a.639.639,0,0,0-.974.062A10.769,10.769,0,0,0,42.679,23.427a.639.639,0,0,0,.062-.974Z" transform="translate(6.661 1.086)" fill="#2d6255"/>
    <path id="Path_51" data-name="Path 51" d="M15.623,9.8a2.692,2.692,0,0,1,4.8.352l6.6,16.04A2.692,2.692,0,0,1,24.343,29.9L8.869,28.767a2.692,2.692,0,0,1-2.116-4.061Z" transform="translate(0 1.205)" fill="#2d6255"/>
  </g>
</svg>
