<svg xmlns="http://www.w3.org/2000/svg" width="17.573" height="19.891" viewBox="0 0 17.573 19.891">
  <path id="形状" d="M11.1,2.2a1.907,1.907,0,0,1,1.2-.056l.168.056,6.834,2.627a2,2,0,0,1,1.26,1.709l.007.166v5.368a9.045,9.045,0,0,1-4.6,7.919l-.26.139L12.441,21.8a1.432,1.432,0,0,1-1.17.063l-.14-.063L7.857,20.122A9.027,9.027,0,0,1,3,12.365l0-.3V6.7a2.006,2.006,0,0,1,1.118-1.81l.149-.065Zm.686,1.874L4.953,6.7v5.368A7.035,7.035,0,0,0,8.5,18.209l.229.123L11.786,19.9l3.056-1.567a7.02,7.02,0,0,0,3.773-6l0-.265V6.7Zm3.351,4.565a.959.959,0,0,1,1.381,0A1.02,1.02,0,0,1,16.6,9.956l-.081.094-5.11,5.239a1.055,1.055,0,0,1-1.425.086L9.89,15.29,7.542,12.884a1.019,1.019,0,0,1,0-1.416.959.959,0,0,1,1.289-.083l.092.083,1.726,1.769Z" transform="translate(-3 -2.068)" fill="#06911d"/>
</svg>
