<svg xmlns="http://www.w3.org/2000/svg" width="71.964" height="71.964" viewBox="0 0 71.964 71.964">
  <path id="warning" d="M40.84,2.012,69.951,31.124a6.87,6.87,0,0,1,0,9.716L40.84,69.951a6.87,6.87,0,0,1-9.716,0L2.012,40.84a6.87,6.87,0,0,1,0-9.716L31.124,2.012A6.87,6.87,0,0,1,40.84,2.012ZM35.982,6.871,6.871,35.982,35.982,65.093,65.093,35.982Zm0,38.558a4.287,4.287,0,1,1-4.294,4.232A4.176,4.176,0,0,1,35.982,45.429Zm3.435-26.624V39.417H32.546V18.805Z" transform="translate(0 0)" fill="#ff9100" fill-rule="evenodd"/>
</svg>
