<svg xmlns="http://www.w3.org/2000/svg" width="88.646" height="88.646" viewBox="0 0 88.646 88.646">
  <g id="页面-1" transform="translate(0 0)">
    <g id="System" transform="translate(0 0)">
      <g id="safety_certificate_line">
        <path id="MingCute" d="M88.646,0V88.646H0V0ZM46.515,85.9l-.043.006-.262.131-.07.014h0l-.056-.014-.262-.131a.079.079,0,0,0-.087.02l-.015.04-.063,1.578.018.075.041.045.383.273.055.014h0l.044-.014.383-.273.047-.059h0l.013-.061-.063-1.578a.079.079,0,0,0-.059-.066Zm.978-.416-.051.007-.682.341-.037.038h0l-.01.041L46.78,87.5l.018.047h0l.031.026.742.342a.093.093,0,0,0,.105-.03l.015-.052-.126-2.27a.094.094,0,0,0-.071-.078Zm-2.642.007a.085.085,0,0,0-.1.02l-.021.051-.126,2.27a.084.084,0,0,0,.062.086l.058-.005.742-.342.035-.03h0l.014-.044.066-1.586-.012-.047h0l-.035-.033Z" fill="none"/>
        <path id="形状" d="M31.724,2.52a6.761,6.761,0,0,1,4.267-.2l.595.2,24.232,9.316A7.077,7.077,0,0,1,65.287,17.9l.024.587V37.515a32.071,32.071,0,0,1-16.3,28.078l-.921.492L36.477,72.037a5.076,5.076,0,0,1-4.148.222l-.5-.222L20.222,66.085A32.007,32.007,0,0,1,3.017,38.58L3,37.515V18.483a7.114,7.114,0,0,1,3.964-6.417l.528-.229Zm2.431,6.646L9.923,18.483V37.515A24.947,24.947,0,0,0,22.508,59.3l.811.435,10.837,5.555,10.837-5.555A24.89,24.89,0,0,0,58.37,38.453l.017-.938V18.483ZM46.039,25.354a3.4,3.4,0,0,1,4.9,0,3.616,3.616,0,0,1,.288,4.685l-.288.334L32.814,48.951a3.74,3.74,0,0,1-5.053.3l-.332-.3-8.322-8.533a3.613,3.613,0,0,1,0-5.019,3.4,3.4,0,0,1,4.569-.3l.326.3,6.119,6.274Z" transform="translate(10.168 7.009)" fill="#06911d"/>
      </g>
    </g>
  </g>
</svg>
